<?xml version="1.0" encoding="utf-8"?>
<!-- Generator: Adobe Illustrator 19.1.0, SVG Export Plug-In . SVG Version: 6.00 Build 0)  -->
<svg version="1.1" id="Layer_1" xmlns="http://www.w3.org/2000/svg" xmlns:xlink="http://www.w3.org/1999/xlink" x="0px" y="0px"
	 viewBox="0 0 160 160" style="enable-background:new 0 0 160 160;" height="16px" width="16px" xml:space="preserve">
<style type="text/css">
	.st0{fill:none;}
	.st1{fill:#E1BB91;}
</style>
<g>
	<polygon class="st0" points="59.5,80.4 11,36.1 11,124.6 	"/>
	<polygon class="st0" points="100.1,80.4 149,124.7 149,36 	"/>
	<path class="st0" d="M92.1,87.8l-8.7,7.8c-1,0.9-2.3,1.4-3.6,1.4c-1.3,0-2.6-0.5-3.7-1.4l-8.6-7.7L16,135h127.9L92.1,87.8z"/>
	<path class="st1" d="M160,22c0-4.4-3.6-8-8-8H8c-4.4,0-8,3.6-8,8v115c0,4.4,3.6,8,8,8h144c4.4,0,8-3.6,8-8V22z M79.8,84.2
		L67.5,72.9L15.2,25h129.5L92.1,72.9 M59.5,80.4L11,124.6V36.1L59.5,80.4z M67.5,87.8l8.6,7.8c1,0.9,2.3,1.4,3.7,1.4
		c1.3,0,2.6-0.5,3.6-1.4l8.7-7.7l51.9,47.2H16L67.5,87.8z M100.1,80.4L149,36v88.7L100.1,80.4z"/>
</g>
<g>
</g>
<g>
</g>
<g>
</g>
<g>
</g>
<g>
</g>
<g>
</g>
<g>
</g>
<g>
</g>
<g>
</g>
<g>
</g>
<g>
</g>
<g>
</g>
<g>
</g>
<g>
</g>
<g>
</g>
</svg>
