<?xml version="1.0" encoding="utf-8"?>
<!-- Generator: Adobe Illustrator 19.1.0, SVG Export Plug-In . SVG Version: 6.00 Build 0)  -->
<svg version="1.1" id="Layer_1" xmlns="http://www.w3.org/2000/svg" xmlns:xlink="http://www.w3.org/1999/xlink" x="0px" y="0px"
	 viewBox="492 -492 1000 1000" style="enable-background:new 492 -492 1000 1000;" height="16px" width="16px" xml:space="preserve">
<style type="text/css">
	.st0{fill:none;}
	.st1{fill:#828282;}
	.st2{fill:#828282;}
</style>
<g>
	<polygon class="st0" points="595.2,153.5 799.7,10.1 595.2,-120.6 	"/>
	<polygon class="st0" points="993.7,15.5 1337.3,-209 1379.5,-236.6 599.4,-236.6 642.6,-209 	"/>
	<polygon class="st0" points="1387.2,146.1 1387.2,-122.2 1186.9,8.7 	"/>
	<path class="st0" d="M994,125c-9.4,0-18.7-2.6-26.9-7.9l-76.2-48.7L649.1,237.8h695.1l-247.8-170l-75.1,49
		C1013,122.3,1003.5,125,994,125z"/>
	<polygon class="st1" points="1428.7,-209 1428.7,-209 1428.7,-209 	"/>
	<g>
		<polygon class="st0" points="1428.7,-209 1428.7,-209 1428.7,-209 		"/>
		<polygon class="st0" points="595.2,153.5 799.7,10.1 595.2,-120.6 		"/>
		<polygon class="st0" points="993.7,15.5 1337.3,-209 1379.5,-236.6 599.4,-236.6 642.6,-209 		"/>
		<polygon class="st0" points="1387.2,146.1 1387.2,-122.2 1186.9,8.7 		"/>
		<path class="st0" d="M994,125c-9.4,0-18.7-2.6-26.9-7.9l-76.2-48.7L649.1,237.8h695.1l-247.8-170l-75.1,49
			C1013,122.3,1003.5,125,994,125z"/>
		<path class="st2" d="M1456.7-330.1h-931c-13.5,0-24.5,11-24.5,24.5v612.5c0,13.5,11,24.5,24.5,24.5h931c13.5,0,24.5-11,24.5-24.5
			v-612.5C1481.2-319.1,1470.2-330.1,1456.7-330.1z M1387.2-122.2v268.3L1186.9,8.7l-90.6,59.2l247.8,170H649.1L890.8,68.4
			l-91.1-58.3L595.2,153.5v-274l-72.4-46.3l53.9-84.3l22.8,14.6h780.1l21.9-14.3l27.3,41.9h0l0,0l27.3,41.9L1387.2-122.2z"/>
		<path class="st2" d="M1428.7-209l-27.3-41.9l-21.9,14.3l-42.2,27.6L993.7,15.5L642.6-209l-43.1-27.6l-22.8-14.6l-53.9,84.3
			l72.4,46.3L799.7,10.1l91.1,58.3l76.2,48.7c8.2,5.3,17.6,7.9,26.9,7.9c9.5,0,19-2.7,27.3-8.1l75.1-49l90.6-59.2l200.3-130.9
			l68.8-45L1428.7-209L1428.7-209z"/>
	</g>
</g>
</svg>
