<svg viewBox="0 0 16 16" width="16px" height="16px">
<path fill="#828282" d="M10.9,15.9H5.1c-2.8,0-5-2.2-5-5V5.1c0-2.8,2.2-5,5-5h5.8c2.8,0,5,2.2,5,5v5.8C15.9,13.6,13.6,15.9,10.9,15.9z
	 M14.4,11.4V4.6c0-1.7-1.3-3-3-3H4.6c-1.7,0-3,1.3-3,3v6.8c0,1.7,1.3,3,3,3h6.8C13,14.4,14.4,13,14.4,11.4z"/>
<path fill="#828282"  d="M12.1,8c0,2.3-1.8,4.1-4.1,4.1S3.9,10.3,3.9,8S5.7,3.9,8,3.9S12.1,5.7,12.1,8z M8,5.4C6.6,5.4,5.4,6.6,5.4,8
	s1.2,2.6,2.6,2.6s2.6-1.2,2.6-2.6S9.4,5.4,8,5.4z"/>
<circle fill="#828282"  cx="12.2" cy="3.8" r="1"/></svg>
