<svg viewBox="0 0 16 16" width="16px" height="16px"><path fill="#9ead58"  d="M16,3.1c-0.6,0.3-1.2,0.4-1.9,0.5c0.7-0.4,1.2-1,1.4-1.8c-0.6,0.4-1.3,0.6-2.1,0.8c-0.6-0.6-1.4-1-2.4-1
	C9.3,1.5,7.8,3,7.8,4.8c0,0.3,0,0.5,0.1,0.7C5.2,5.4,2.8,4.1,1.1,2.1c-0.3,0.5-0.4,1-0.4,1.6c0,1.1,0.6,2.1,1.5,2.7
	c-0.5,0-1-0.2-1.5-0.4c0,0,0,0,0,0c0,1.6,1.1,2.9,2.6,3.2C3,9.4,2.7,9.4,2.4,9.4c-0.2,0-0.4,0-0.6-0.1c0.4,1.3,1.6,2.2,3.1,2.3
	c-1.1,0.9-2.5,1.4-4.1,1.4c-0.3,0-0.5,0-0.8,0c1.4,0.9,3.2,1.5,5,1.5c6,0,9.3-5,9.3-9.3c0-0.1,0-0.3,0-0.4C15,4.3,15.5,3.7,16,3.1z"
	/>
</svg>
